<mxfile host="app.diagrams.net" modified="2021-07-28T01:09:34.717Z" agent="5.0 (Macintosh)" etag="NnhvuAQE_gOqmhzNYmtR" version="14.2.7" type="github">
  <diagram id="JNwxlYpdH0f2OIVfWxtT" name="Page-1">
    <mxGraphModel dx="534" dy="317" grid="1" gridSize="10" guides="1" tooltips="1" connect="1" arrows="1" fold="1" page="1" pageScale="1" pageWidth="1200" pageHeight="1600" math="0" shadow="0">
      <root>
        <mxCell id="0" />
        <mxCell id="1" parent="0" />
        <mxCell id="Sfd0NN9w5Pw_0LikJmXP-1" value="&lt;div&gt;Data Source claims available UNITS:&lt;/div&gt;&lt;div&gt;n=XXXX&lt;br&gt;&lt;/div&gt;" style="rounded=0;whiteSpace=wrap;html=1;" parent="1" vertex="1">
          <mxGeometry x="240" y="120" width="120" height="60" as="geometry" />
        </mxCell>
        <mxCell id="Sfd0NN9w5Pw_0LikJmXP-2" value="&lt;div&gt;Downloaded&lt;/div&gt;&lt;div&gt;UNITS on local storage&lt;/div&gt;&lt;div&gt;n=XXXX&lt;br&gt;&lt;/div&gt;" style="rounded=0;whiteSpace=wrap;html=1;" parent="1" vertex="1">
          <mxGeometry x="210" y="250" width="180" height="80" as="geometry" />
        </mxCell>
        <mxCell id="Sfd0NN9w5Pw_0LikJmXP-4" value="&lt;div&gt;Unavailable UNITS (n=XX)&lt;/div&gt;&lt;div&gt;Corrupted data UNITS (n=XX) &lt;br&gt;&lt;/div&gt;" style="rounded=0;whiteSpace=wrap;html=1;" parent="1" vertex="1">
          <mxGeometry x="410" y="184" width="220" height="70" as="geometry" />
        </mxCell>
        <mxCell id="Sfd0NN9w5Pw_0LikJmXP-5" value="" style="endArrow=classic;html=1;entryX=0;entryY=0.5;entryDx=0;entryDy=0;" parent="1" target="Sfd0NN9w5Pw_0LikJmXP-4" edge="1">
          <mxGeometry width="50" height="50" relative="1" as="geometry">
            <mxPoint x="300" y="220" as="sourcePoint" />
            <mxPoint x="730" y="410" as="targetPoint" />
          </mxGeometry>
        </mxCell>
        <mxCell id="Sfd0NN9w5Pw_0LikJmXP-6" value="&lt;div&gt;Missing T1w (n=XX)&lt;/div&gt;Unusable T1w (n=XX)" style="rounded=0;whiteSpace=wrap;html=1;" parent="1" vertex="1">
          <mxGeometry x="410" y="340" width="180" height="60" as="geometry" />
        </mxCell>
        <mxCell id="Sfd0NN9w5Pw_0LikJmXP-7" value="" style="endArrow=classic;html=1;exitX=0.5;exitY=1;exitDx=0;exitDy=0;" parent="1" source="Sfd0NN9w5Pw_0LikJmXP-1" target="Sfd0NN9w5Pw_0LikJmXP-2" edge="1">
          <mxGeometry width="50" height="50" relative="1" as="geometry">
            <mxPoint x="680" y="460" as="sourcePoint" />
            <mxPoint x="730" y="410" as="targetPoint" />
          </mxGeometry>
        </mxCell>
        <mxCell id="Sfd0NN9w5Pw_0LikJmXP-8" value="&lt;div&gt;UNITS is either &lt;i&gt;subjects&lt;/i&gt;,&lt;/div&gt;&lt;div&gt;&lt;i&gt;sessions&lt;/i&gt; or &lt;i&gt;scans&lt;/i&gt;&lt;br&gt;&lt;/div&gt;" style="ellipse;shape=cloud;whiteSpace=wrap;html=1;" parent="1" vertex="1">
          <mxGeometry x="400" y="60" width="190" height="100" as="geometry" />
        </mxCell>
        <mxCell id="Sfd0NN9w5Pw_0LikJmXP-9" value="" style="endArrow=none;html=1;entryX=0.5;entryY=1;entryDx=0;entryDy=0;" parent="1" target="Sfd0NN9w5Pw_0LikJmXP-2" edge="1">
          <mxGeometry width="50" height="50" relative="1" as="geometry">
            <mxPoint x="300" y="430" as="sourcePoint" />
            <mxPoint x="300" y="335" as="targetPoint" />
          </mxGeometry>
        </mxCell>
        <mxCell id="Sfd0NN9w5Pw_0LikJmXP-10" value="" style="endArrow=classic;html=1;entryX=0;entryY=0.5;entryDx=0;entryDy=0;" parent="1" target="Sfd0NN9w5Pw_0LikJmXP-6" edge="1">
          <mxGeometry width="50" height="50" relative="1" as="geometry">
            <mxPoint x="300" y="370" as="sourcePoint" />
            <mxPoint x="550" y="330" as="targetPoint" />
          </mxGeometry>
        </mxCell>
        <mxCell id="Sfd0NN9w5Pw_0LikJmXP-11" value="" style="endArrow=none;html=1;" parent="1" edge="1">
          <mxGeometry width="50" height="50" relative="1" as="geometry">
            <mxPoint x="80" y="430" as="sourcePoint" />
            <mxPoint x="530" y="430" as="targetPoint" />
          </mxGeometry>
        </mxCell>
        <mxCell id="Sfd0NN9w5Pw_0LikJmXP-12" value="" style="endArrow=classic;html=1;" parent="1" edge="1">
          <mxGeometry width="50" height="50" relative="1" as="geometry">
            <mxPoint x="919" y="200" as="sourcePoint" />
            <mxPoint x="919.41" y="320" as="targetPoint" />
          </mxGeometry>
        </mxCell>
        <mxCell id="Sfd0NN9w5Pw_0LikJmXP-13" value="&lt;div&gt;UNITS with MOD&lt;/div&gt;&lt;div&gt;n=XXX&lt;br&gt;&lt;/div&gt;" style="rounded=0;whiteSpace=wrap;html=1;" parent="1" vertex="1">
          <mxGeometry x="840" y="320" width="160" height="60" as="geometry" />
        </mxCell>
        <mxCell id="Sfd0NN9w5Pw_0LikJmXP-14" value="" style="endArrow=classic;html=1;" parent="1" edge="1">
          <mxGeometry width="50" height="50" relative="1" as="geometry">
            <mxPoint x="920" y="259" as="sourcePoint" />
            <mxPoint x="970" y="259" as="targetPoint" />
          </mxGeometry>
        </mxCell>
        <mxCell id="TIXV101uSg5O-Eqi6jPN-1" value="&lt;div&gt;Missing MOD (n=XX)&lt;/div&gt;Corrupt MOD (n=XX)" style="rounded=0;whiteSpace=wrap;html=1;" vertex="1" parent="1">
          <mxGeometry x="970" y="229" width="160" height="60" as="geometry" />
        </mxCell>
        <mxCell id="TIXV101uSg5O-Eqi6jPN-5" value="" style="endArrow=classic;html=1;" edge="1" parent="1">
          <mxGeometry width="50" height="50" relative="1" as="geometry">
            <mxPoint x="919" y="380" as="sourcePoint" />
            <mxPoint x="919.4099999999999" y="500" as="targetPoint" />
          </mxGeometry>
        </mxCell>
        <mxCell id="TIXV101uSg5O-Eqi6jPN-6" value="" style="endArrow=classic;html=1;" edge="1" parent="1">
          <mxGeometry width="50" height="50" relative="1" as="geometry">
            <mxPoint x="919.9999999999998" y="439" as="sourcePoint" />
            <mxPoint x="969.9999999999998" y="439" as="targetPoint" />
          </mxGeometry>
        </mxCell>
        <mxCell id="TIXV101uSg5O-Eqi6jPN-7" value="XPrep failed (n=XX)" style="rounded=0;whiteSpace=wrap;html=1;" vertex="1" parent="1">
          <mxGeometry x="970" y="409" width="160" height="60" as="geometry" />
        </mxCell>
        <mxCell id="TIXV101uSg5O-Eqi6jPN-8" value="&lt;div&gt;UNITS with&lt;/div&gt;&lt;div&gt;preprocessed MOD&lt;/div&gt;&lt;div&gt;n=XXX&lt;br&gt;&lt;/div&gt;" style="rounded=0;whiteSpace=wrap;html=1;" vertex="1" parent="1">
          <mxGeometry x="840" y="500" width="160" height="60" as="geometry" />
        </mxCell>
        <mxCell id="TIXV101uSg5O-Eqi6jPN-9" value="" style="endArrow=classic;html=1;" edge="1" parent="1">
          <mxGeometry width="50" height="50" relative="1" as="geometry">
            <mxPoint x="919" y="560" as="sourcePoint" />
            <mxPoint x="919.4099999999999" y="679.9999999999999" as="targetPoint" />
          </mxGeometry>
        </mxCell>
        <mxCell id="TIXV101uSg5O-Eqi6jPN-10" value="" style="endArrow=classic;html=1;" edge="1" parent="1">
          <mxGeometry width="50" height="50" relative="1" as="geometry">
            <mxPoint x="919.9999999999998" y="619" as="sourcePoint" />
            <mxPoint x="969.9999999999998" y="619" as="targetPoint" />
          </mxGeometry>
        </mxCell>
        <mxCell id="TIXV101uSg5O-Eqi6jPN-11" value="XCP/QSIRecon failed (n=XX)" style="rounded=0;whiteSpace=wrap;html=1;" vertex="1" parent="1">
          <mxGeometry x="970" y="589" width="160" height="60" as="geometry" />
        </mxCell>
        <mxCell id="TIXV101uSg5O-Eqi6jPN-12" value="&lt;div&gt;UNITS with&lt;/div&gt;&lt;div&gt;completely processed MOD&lt;/div&gt;&lt;div&gt;n=XXX&lt;br&gt;&lt;/div&gt;" style="rounded=0;whiteSpace=wrap;html=1;" vertex="1" parent="1">
          <mxGeometry x="840" y="680" width="160" height="60" as="geometry" />
        </mxCell>
      </root>
    </mxGraphModel>
  </diagram>
</mxfile>
